<?xml version="1.0"?>
<svg xmlns="http://www.w3.org/2000/svg" width="403.09" height="100.36">
<g transform="matrix(1.25,0,0,-1.25,0,100.35995)">
 <path d="m 251.36527,50.182023 -0.27469,-1.055702 c 0,0 3.46477,0.05724 4.86115,0.05724 3.19824,0.0032 5.14564,-0.289364 5.35985,-2.237006 0.18966,-1.311677 -0.4186,-2.572478 -0.77014,-3.811018 -0.33846,-1.201974 -0.64587,-2.35466 -0.97943,-3.540735 -0.35154,-1.25126 -0.73088,-2.35466 -1.39963,-3.198903 -0.76197,-0.958717 -1.73484,-1.594681 -2.73062,-1.837938 -1.37185,-0.335471 -6.98023,-0.136732 -8.54175,-0.136732 -0.17496,-0.440406 -0.2796,-0.952358 -0.42022,-1.427741 4.54721,-0.232127 8.92927,0.07314 13.58276,-0.06837 1.5092,-0.04611 3.00695,-0.20669 4.33955,0.06837 2.03078,0.414967 3.49911,1.812499 4.13025,3.675876 0.62461,1.834759 1.19036,3.97319 1.75119,5.920832 0.30741,1.066832 0.50361,2.074836 0.97943,2.927029 0.45292,0.812445 1.05137,1.445229 1.81986,2.043036 1.40945,1.09227 3.70514,2.011239 5.88145,0.952358 1.07262,-0.521492 1.6956,-1.387993 1.68087,-2.995394 -0.013,-1.383224 -0.47744,-2.521601 -0.84043,-3.81102 -1.08407,-3.850767 -2.0406,-7.122805 -3.08053,-10.892486 -0.34173,-1.236952 -0.60498,-2.562939 -1.04973,-3.607512 -0.86333,-2.028727 -2.76332,-3.688595 -5.25029,-4.084483 -2.08476,-0.330702 -4.45565,-0.06837 -6.65159,-0.06837 l -20.02177,0 c 0,0 -0.34173,-0.984156 -0.49053,-1.497697 8.78701,-0.124013 17.84382,-0.06678 26.39375,-0.06678 2.32838,0 4.48508,-0.06201 6.51096,0.135142 5.80786,0.56601 10.94862,2.195669 15.19169,4.493092 7.05382,3.818969 12.5968,9.149944 16.66165,15.996105 2.34146,3.944572 6.25589,6.949506 12.69163,6.949506 0.18477,0.489692 0.27797,0.702741 0.43003,1.119298 l -69.76472,0 z" style="fill:#0D4689;fill-rule:nonzero;stroke:none" />
 <path d="m 89.511006,58.996813 8.121531,0 C 94.084374,46.516004 90.637588,33.938209 87.059994,21.489198 l -8.049587,0 c 3.42226,12.576205 6.958977,25.042705 10.500599,37.507615" style="fill:#0D4689;fill-rule:nonzero;stroke:none" />
 <path d="m 1.5800387,21.488563 0,0.203508 c 2.8467053,9.711183 5.4546865,19.656082 8.3308239,29.340237 l 27.3731724,0 c 1.625287,0 2.998769,-0.01272 4.200566,-0.340242 3.4288,-0.936458 5.69014,-4.119462 4.761405,-8.3057 -0.516691,-2.329222 -1.345686,-4.87944 -1.960483,-7.011513 -1.018666,-3.528014 -1.973563,-6.997202 -2.939905,-10.415513 -0.331925,-1.170175 -0.49053,-2.389637 -1.051368,-3.470777 -2.635778,0.04452 -5.459592,-0.09062 -7.980913,0.06678 1.474858,5.485197 3.420625,12.226424 5.041007,17.904 0.277966,0.973026 0.560838,1.98262 0.49053,2.790295 -0.23382,2.675823 -3.315979,2.332402 -6.301668,2.314913 -1.91143,-6.722149 -3.826129,-13.56195 -5.670519,-20.217322 -0.264886,-0.958717 -0.4938,-1.947642 -0.909115,-2.858661 -2.637412,0.04452 -5.461227,-0.09062 -7.982547,0.06678 2.040602,7.752412 4.328104,15.263156 6.371976,23.009208 l -7.210781,0 c -2.125628,-7.736519 -4.243079,-15.47939 -6.5109599,-23.075989 -2.4052285,0.0016 -5.4138086,-0.0016 -8.0512214,0" style="fill:#0D4689;fill-rule:nonzero;stroke:none" />
 <path d="m 54.366703,51.03183 12.322097,0 c 4.463817,0 8.020155,0.252797 10.641217,-1.566062 1.550073,-1.074781 2.746965,-2.928619 2.799287,-5.44545 0.04251,-2.043036 -0.645863,-4.004988 -1.19035,-5.922421 C 77.38234,32.61111 75.819186,26.788852 74.249493,21.488085 l -13.02192,0 c -4.146607,0 -9.396907,-0.53421 -12.181479,0.885582 -1.572964,0.801315 -2.820543,2.400767 -3.010215,4.491501 -0.261615,2.88251 0.824089,5.472477 2.030792,7.284976 1.25085,1.880867 2.985688,3.300658 5.17999,4.219627 4.709082,1.97785 11.514359,0.612117 17.851998,1.020723 0.498705,1.09386 0.935277,2.865022 0.349912,4.017708 -1.026842,2.019188 -5.454687,1.429332 -8.680735,1.429332 l -10.150687,0 c 0.534676,2.111402 1.10042,4.194187 1.749554,6.194296 m 4.409859,-17.835633 c -2.467363,-0.186019 -3.952031,-1.585142 -3.850656,-4.287993 0.372803,-0.853782 1.291728,-1.149505 2.380703,-1.225822 3.0887,-0.214638 7.339954,0.162171 10.570907,0 0.521597,1.831579 1.033382,3.671107 1.540263,5.513815 -3.252209,-0.18125 -7.460952,0.240077 -10.641217,0" style="fill:#0D4689;fill-rule:nonzero;stroke:none" />
 <path d="m 101.20229,51.03183 12.74231,0 c 2.29404,0 4.41803,0.109705 6.22972,-0.135142 4.27415,-0.580318 7.33342,-3.475548 6.72189,-8.374067 -0.30249,-2.421435 -1.28028,-4.923957 -1.89181,-7.079878 -1.35712,-4.793585 -2.50987,-9.412279 -3.91933,-13.954658 l -13.44213,0 c -4.3559,0 -9.477035,-0.489693 -12.181487,1.157457 -1.394738,0.849012 -2.43139,2.351479 -2.589995,4.356359 -0.228913,2.87774 0.90421,5.321435 2.099466,7.148243 1.231229,1.877687 2.935001,3.307018 5.111316,4.219627 4.71726,1.97944 11.60429,0.608936 17.852,1.020723 0.51015,1.076371 0.9271,2.882511 0.34992,4.017708 -1.02685,2.017598 -5.4547,1.429332 -8.68074,1.429332 l -10.150697,0 c 0.549397,2.097093 1.102067,4.191007 1.749567,6.194296 m 4.34118,-17.835633 c -0.60826,-0.05088 -1.50919,-0.257565 -2.03079,-0.54534 -1.01866,-0.559649 -2.17468,-2.516831 -1.68088,-3.879385 0.24363,-0.667763 1.27537,-1.015954 2.24008,-1.08909 3.39937,-0.254386 7.2582,0.19238 10.64286,0 0.53467,1.81568 1.05136,3.652028 1.54026,5.513815 -3.41572,-0.227357 -7.19443,0.300494 -10.71153,0" style="fill:#0D4689;fill-rule:nonzero;stroke:none" />
 <path d="m 133.96654,51.03183 8.05122,0 c -1.26884,-4.807893 -3.00858,-10.684209 -4.48017,-16.06606 -0.47581,-1.734595 -1.65799,-4.423136 -0.63115,-5.922423 0.81265,-1.182895 2.78948,-1.020724 4.90039,-1.020724 2.02916,0 4.17767,-0.0032 5.81114,0 2.25317,7.58865 4.33465,15.345831 6.51096,23.009207 l 8.12153,0 c -2.91537,-10.490239 -5.98772,-21.449502 -8.89166,-31.721924 -0.75214,-2.658333 -1.98011,-4.687061 -3.85066,-6.399396 -1.7937,-1.642379 -3.988,-3.0589906 -6.51095,-3.7442427 -2.77476,-0.7520287 -6.37362,-0.4070176 -9.9414,-0.4070176 l -10.221,0 c 0.46601,2.1559213 1.13149,4.1194623 1.68088,6.1927073 l 7.70131,0 c 2.71263,0 5.48085,-0.165351 7.69968,0 2.13381,0.160582 3.85556,1.310087 4.69109,2.723519 0.61807,1.047752 0.77177,2.415077 1.19036,3.812609 -6.54857,0.173301 -14.38069,-1.036622 -17.01156,3.063761 -0.44802,0.697971 -0.82572,1.715515 -0.91075,2.790295 -0.17168,2.159101 0.57064,4.311842 1.12004,6.262664 1.59095,5.650547 3.35031,11.724011 4.83008,17.223516 0.0605,0.05406 0.0425,0.186021 0.14062,0.203509" style="fill:#0D4689;fill-rule:nonzero;stroke:none" />
 <path d="m 195.50395,51.03183 c -0.60008,-2.049396 -1.14456,-4.15126 -1.74955,-6.194296 l -14.56218,0 c -1.72177,0 -3.30781,0.08585 -4.40986,-0.408608 -1.32607,-0.594627 -2.1567,-2.028728 -2.03079,-3.81261 0.50197,-1.138376 1.89344,-1.225822 3.22113,-1.225822 l 4.48017,0 c 3.02821,0 6.06949,0.143092 8.11991,-0.815624 2.0177,-0.944408 3.38628,-3.000165 3.15082,-6.194298 -0.21092,-2.853891 -1.71848,-5.650547 -3.50074,-7.421709 -1.89344,-1.879276 -4.2349,-3.086019 -7.631,-3.402412 -3.48276,-0.325932 -7.31215,-0.06837 -11.06144,-0.06837 -3.73129,0 -7.43151,0.0016 -10.99112,0 0.38915,1.958772 1.11513,4.179878 1.68087,6.194297 l 16.31174,0 c 1.93432,0 3.52855,-0.02544 4.6911,0.680483 0.88459,0.53898 2.02261,2.202028 1.54026,3.677466 -0.56248,1.712335 -5.24212,1.155866 -7.631,1.155866 -3.03148,0 -5.9959,-0.10334 -7.98255,0.817215 -2.20575,1.023904 -3.5547,2.853892 -3.28982,6.194298 0.12918,1.632839 0.67039,3.020832 1.26066,4.221216 1.77409,3.60592 5.26502,6.289692 10.29131,6.602905 3.35032,0.208278 6.74478,0 10.08202,0 l 10.01006,0 z" style="fill:#0D4689;fill-rule:nonzero;stroke:none" />
 <path d="m 200.89487,51.03183 8.05122,0 c -2.6832,-9.894022 -5.4645,-19.69265 -8.26051,-29.475379 -2.20411,-0.1574 -5.66398,-0.02385 -7.98255,-0.06837 -0.16188,0.265515 -0.001,0.628015 0.0703,0.885582 2.61289,9.321653 5.39746,19.047145 8.05122,28.454654 -0.005,0.09698 -0.0114,0.19238 0.0703,0.20351" style="fill:#0D4689;fill-rule:nonzero;stroke:none" />
 <path d="m 214.54629,51.03183 16.52266,0 c 5.21106,0 9.12712,-1.996929 9.23994,-7.011512 0.0474,-2.022368 -0.65895,-4.011347 -1.19036,-5.922421 -1.53372,-5.524945 -3.09196,-11.108716 -4.68946,-16.541446 -4.19239,-0.125603 -8.67582,-0.06837 -13.16253,-0.06837 -4.21692,0 -9.38546,-0.53739 -12.17984,0.953947 -1.0154,0.54057 -1.93269,1.508827 -2.38071,2.516831 -1.20016,2.70603 -0.18803,5.873135 0.90911,8.033826 1.15439,2.270394 2.92684,3.997038 4.97071,5.036841 4.95761,2.523191 12.40548,0.882401 18.69244,1.360964 0.49052,1.114529 0.92219,2.858662 0.3499,4.017708 -0.99741,2.022369 -5.47921,1.429332 -8.68073,1.429332 l -10.15069,0 c 0.45946,2.070065 1.12495,3.942981 1.61058,5.990787 0.0589,0.05406 0.0409,0.186021 0.13898,0.20351 m 4.33954,-17.835634 c -0.60334,-0.05088 -1.50592,-0.259155 -2.02915,-0.54534 -1.09225,-0.596216 -2.24172,-2.664692 -1.68088,-3.947751 0.28287,-0.645504 1.32279,-0.952357 2.3104,-1.020724 3.37974,-0.235307 7.20914,0.17807 10.57253,0 0.49217,1.858608 1.03993,3.663158 1.53863,5.513815 -3.42226,-0.228947 -7.17317,0.303673 -10.71153,0" style="fill:#0D4689;fill-rule:nonzero;stroke:none" />
 <path d="m 188.36299,18.628628 c -1.3555,-5.556742 -3.18844,-11.2406774 -4.62078,-16.9500514 l -2.44938,0 c 1.58768,5.5821811 3.15901,11.1786714 4.68945,16.8149094 0.53632,0.295723 1.61875,0.06042 2.38071,0.135142" style="fill:#0D4689;fill-rule:nonzero;stroke:none" />
 <path d="m 156.99903,14.952592 5.39092,0 c 2.76495,0 5.45142,0.352961 6.09074,-1.564472 0.45783,-1.378454 -0.27306,-2.810964 -0.62951,-4.0844842 -0.68674,-2.4452849 -1.38983,-5.1799336 -2.10111,-7.6252182 -2.76004,0.1462719 -6.01715,-0.1923794 -8.75104,0 -1.81823,0.1287828 -3.14756,1.0493419 -3.21951,2.8586618 -0.067,1.6376094 0.95818,3.3086068 1.96049,4.0844835 2.20084,1.7075661 6.16922,0.9046602 9.80077,1.0906806 0.21094,0.7901855 0.80121,1.7171045 0.49053,2.5851965 -0.39078,1.09068 -2.7862,0.748849 -4.41149,0.748849 l -5.17999,0 c 0.15533,0.666173 0.29596,1.346655 0.5592,1.906303 m 0.62952,-7.555261 c -0.68511,-0.4038376 -1.57134,-1.534265 -1.32934,-2.7235193 0.40387,-1.9889799 5.26665,-0.7313595 7.56069,-1.0890896 0.33193,1.030263 0.61971,2.2465456 0.91075,3.2672692 0.0916,0.3211622 0.38262,0.7265897 0.14062,1.0207234 -2.0079,-0.3752192 -5.73429,0.4372259 -7.28272,-0.4753837" style="fill:#0D4689;fill-rule:nonzero;stroke:none" />
 <path d="m 174.08121,14.952592 c -1.1413,-4.49468 -2.45428,-8.8224208 -3.63973,-13.2741744 l -2.3807,0 c 1.20507,4.4565234 2.4363,8.8860184 3.71004,13.2741744 l 2.31039,0 z" style="fill:#0D4689;fill-rule:nonzero;stroke:none" />
 <path d="m 175.13178,1.6108463 -2.3807,0 c 0.51178,2.1114031 1.32116,4.8269729 2.03079,7.4201198 0.70309,2.5692979 1.3326,4.9446259 3.78035,5.7173239 1.28845,0.407017 2.87123,0.112883 4.62078,0.203508 -0.14715,-0.672532 -0.28778,-1.353015 -0.56083,-1.904715 -1.02358,-0.03656 -1.8215,0.07949 -2.59001,-0.06837 -2.03896,-0.394298 -2.3905,-2.246545 -2.9399,-4.1528502 -0.6524,-2.254495 -1.46832,-5.3850318 -1.96048,-7.2150204" style="fill:#0D4689;fill-rule:nonzero;stroke:none" />
 <path d="M 192.07368,14.952592 C 190.8212,10.543767 189.60305,6.1015528 188.36365,1.6784176 l -2.3807,0 c 1.20997,4.3595387 2.4183,8.7222574 3.64135,13.0706664 -0.003,0.116064 0.0506,0.17648 0.13899,0.203508 l 2.31039,0 z" style="fill:#0D4689;fill-rule:nonzero;stroke:none" />
 <path d="m 194.38424,14.952592 c 4.37061,-0.441995 11.16935,1.589913 10.92082,-3.198902 -0.0441,-0.847423 -0.3908,-1.718695 -0.62951,-2.5867868 -0.66058,-2.3896378 -1.43235,-5.0479707 -2.0308,-7.4884856 l -2.44937,0 c 0.53141,2.0621158 1.42253,5.0749991 2.09946,7.4884856 0.32211,1.1463268 0.83063,2.5597578 0.14062,3.3356348 -1.03829,1.166996 -4.11063,0.241667 -6.16104,0.543751 -1.16584,-3.6997259 -2.15833,-7.5679817 -3.22115,-11.3678714 l -2.37907,0 c 1.2067,4.4533435 2.42812,8.8939674 3.71004,13.2741744" style="fill:#0D4689;fill-rule:nonzero;stroke:none" />
 <path d="m 219.51699,14.952592 c -0.20112,-0.621655 -0.32375,-1.318036 -0.55921,-1.906303 -1.92614,-0.119244 -3.69369,0.162171 -5.32061,0 -2.36599,-0.235307 -3.62174,-1.847478 -4.41149,-3.6075107 2.6603,-0.1574018 5.62473,-0.022259 8.40113,-0.068365 -0.12427,-0.650273 -0.34173,-1.2099226 -0.49053,-1.8379378 l -8.40113,0 c -0.33193,-0.7186403 -0.41859,-1.7282344 -0.20929,-2.4500545 0.67365,-2.3292211 5.041,-1.2576203 7.7013,-1.497697 0.0965,-0.5930373 -0.32537,-1.2719296 -0.42022,-1.9063046 -3.96674,0.1415022 -7.9433,-0.71546032 -9.38218,1.7695721 -1.76591,3.054221 0.56901,7.8414465 2.66194,9.6666645 1.08243,0.945998 2.60961,1.705976 4.05994,1.837939 2.14198,0.195559 3.99454,-0.143092 6.37035,0" style="fill:#0D4689;fill-rule:nonzero;stroke:none" />
 <path d="m 233.23891,14.885181 c -0.22402,-0.599397 -0.35155,-1.292599 -0.55921,-1.906305 -2.46899,-0.343421 -6.45863,0.577138 -8.33245,-0.271875 -0.78485,-0.35614 -1.89999,-1.602631 -1.32934,-2.7235193 0.61316,-1.2035628 5.43997,-0.287774 6.93117,-0.9523569 2.08967,-0.9332785 1.84767,-3.8746158 0.62952,-5.5138151 -0.68838,-0.9285085 -1.92288,-1.6948461 -3.36012,-1.8395281 -2.8647,-0.2861842 -6.49134,0.216228 -9.59149,0 0.18149,0.6423245 0.30739,1.3355261 0.56084,1.9063045 2.85161,0.3513706 8.78048,-0.8521929 10.2913,1.0223134 0.41532,0.5151315 0.67366,1.5135962 0.34829,2.1781795 -0.74889,1.5342651 -6.12345,0.1685307 -7.69969,1.2242323 -0.61643,0.4133767 -1.11514,1.4038927 -0.98105,2.5867867 0.26161,2.279934 2.34636,4.086074 4.83171,4.289583 2.78294,0.227358 5.36312,-0.170121 8.26052,0" style="fill:#0D4689;fill-rule:nonzero;stroke:none" />
 <path d="m 321.38964,50.896052 c -4.92981,-0.109704 -8.61696,2.004879 -8.97014,6.466172 -0.0719,0.89989 0.007,1.740954 -0.0703,2.518421 -0.242,2.465953 -0.7734,4.408826 -1.61057,6.331029 -3.21304,7.378782 -9.55231,11.442598 -19.74223,12.253453 l -31.64406,0 c -0.0605,-0.55329 -0.30739,-0.92533 -0.34991,-1.497698 l 20.442,0 c 2.2319,0 4.70908,0.303673 6.58126,-0.203509 1.20834,-0.327521 2.6832,-1.415021 2.59,-3.539143 -0.0474,-1.089091 -0.55593,-2.248136 -0.91075,-3.472368 -0.97942,-3.388103 -1.81986,-6.744407 -2.79929,-10.143639 -0.63768,-2.208388 -1.09061,-4.561457 -2.45101,-6.194297 -1.23287,-1.480208 -3.46804,-2.928619 -6.16105,-2.17818 -0.97942,0.273465 -1.59258,0.618475 -2.02915,1.292599 -1.05627,1.628069 -0.085,4.132181 0.42021,5.922422 0.27634,0.982565 0.57883,1.893585 0.83881,2.791886 0.25017,0.863321 0.67857,1.899944 0.69982,2.927027 0.036,1.578783 -0.96961,2.392818 -1.95884,2.723519 -1.174,0.389529 -2.86797,0.20351 -4.4115,0.20351 -4.50633,0 -9.36747,0.05565 -13.72174,-0.06837 -0.0932,-0.475384 -0.27306,-0.868091 -0.34991,-1.360965 3.92097,0 10.22099,0.491284 10.22099,-2.723519 0.01,-0.750439 -0.26161,-1.589912 -0.49053,-2.381688 -0.41695,-1.45 -0.85351,-2.88569 -1.25902,-4.357949 -0.20602,-0.745668 -0.34664,-1.515186 -0.62951,-2.178179 -0.74561,-1.747314 -1.53372,-3.130537 -4.41149,-3.130537 l -7.66371,0 -0.18313,-0.71387 69.76472,0 c 0.10791,0.317982 0.16678,0.473793 0.25998,0.71387" style="fill:#0D4689;fill-rule:nonzero;stroke:none" />
</g>
</svg>