<svg xmlns="http://www.w3.org/2000/svg" width="1600" height="600" viewBox="0 0 1600 600" preserveAspectRatio="xMidYMid slice" role="img" aria-label="COOKIES">
  <defs>
    <linearGradient id="bg-cookies" x1="0" y1="0" x2="1" y2="1">
      <stop offset="0" stop-color="#0a1730"/>
      <stop offset=".55" stop-color="#0b2f63"/>
      <stop offset="1" stop-color="#a8642a"/>
    </linearGradient>
    <radialGradient id="glow-cookies" cx=".82" cy=".25" r=".55">
      <stop offset="0" stop-color="#a8642a" stop-opacity=".5"/>
      <stop offset="1" stop-color="#a8642a" stop-opacity="0"/>
    </radialGradient>
  </defs>
  <rect width="1600" height="600" fill="url(#bg-cookies)"/>
  <rect width="1600" height="600" fill="url(#glow-cookies)"/>
  <g opacity=".07" stroke="#fff" fill="none" stroke-width="1">
    <path d="M0 100 H1600 M0 200 H1600 M0 300 H1600 M0 400 H1600 M0 500 H1600"/>
    <path d="M200 0 V600 M400 0 V600 M600 0 V600 M800 0 V600 M1000 0 V600 M1200 0 V600 M1400 0 V600"/>
  </g>
  <g fill="#fff" opacity=".5">
    <circle cx="180" cy="120" r="2"/><circle cx="1480" cy="180" r="2"/>
    <circle cx="320" cy="460" r="2"/><circle cx="1260" cy="480" r="3"/>
    <circle cx="900" cy="80" r="2"/><circle cx="540" cy="540" r="2"/>
    <circle cx="1380" cy="540" r="2"/><circle cx="60" cy="320" r="2"/>
  </g>
  <g transform="translate(1100, 110)">
    <circle cx="190" cy="190" r="170" fill="#d4a26b"/><circle cx="120" cy="130" r="22" fill="#5e3a1e"/><circle cx="240" cy="100" r="16" fill="#5e3a1e"/><circle cx="260" cy="220" r="20" fill="#5e3a1e"/><circle cx="140" cy="260" r="18" fill="#5e3a1e"/><circle cx="200" cy="180" r="12" fill="#5e3a1e"/><circle cx="80" cy="200" r="14" fill="#5e3a1e"/>
  </g>
  <text x="80" y="540" font-family="Inter, Arial, sans-serif" font-size="34" font-weight="800" fill="#fff" opacity=".82" letter-spacing="3">COOKIES</text>
  <rect x="80" y="556" width="50" height="3" fill="#ed174c"/>
</svg>