<svg xmlns="http://www.w3.org/2000/svg" width="1600" height="600" viewBox="0 0 1600 600" preserveAspectRatio="xMidYMid slice" role="img" aria-label="FEES & CHARGES">
  <defs>
    <linearGradient id="bg-fees" x1="0" y1="0" x2="1" y2="1">
      <stop offset="0" stop-color="#0a1730"/>
      <stop offset=".55" stop-color="#0b2f63"/>
      <stop offset="1" stop-color="#c9a73f"/>
    </linearGradient>
    <radialGradient id="glow-fees" cx=".82" cy=".25" r=".55">
      <stop offset="0" stop-color="#c9a73f" stop-opacity=".5"/>
      <stop offset="1" stop-color="#c9a73f" stop-opacity="0"/>
    </radialGradient>
  </defs>
  <rect width="1600" height="600" fill="url(#bg-fees)"/>
  <rect width="1600" height="600" fill="url(#glow-fees)"/>
  <g opacity=".07" stroke="#fff" fill="none" stroke-width="1">
    <path d="M0 100 H1600 M0 200 H1600 M0 300 H1600 M0 400 H1600 M0 500 H1600"/>
    <path d="M200 0 V600 M400 0 V600 M600 0 V600 M800 0 V600 M1000 0 V600 M1200 0 V600 M1400 0 V600"/>
  </g>
  <g fill="#fff" opacity=".5">
    <circle cx="180" cy="120" r="2"/><circle cx="1480" cy="180" r="2"/>
    <circle cx="320" cy="460" r="2"/><circle cx="1260" cy="480" r="3"/>
    <circle cx="900" cy="80" r="2"/><circle cx="540" cy="540" r="2"/>
    <circle cx="1380" cy="540" r="2"/><circle cx="60" cy="320" r="2"/>
  </g>
  <g transform="translate(1100, 110)">
    <rect x="80" y="20" width="220" height="340" rx="6" fill="#fff"/><path d="M80 20 L100 5 L120 20 L140 5 L160 20 L180 5 L200 20 L220 5 L240 20 L260 5 L280 20 L300 5 Z" fill="#fff"/><path d="M100 80 H280 M100 120 H280 M100 160 H280 M100 200 H280 M100 240 H280" stroke="#0b2f63" stroke-width="4" stroke-linecap="round"/><rect x="100" y="265" width="100" height="20" fill="#0b2f63"/><rect x="220" y="265" width="60" height="20" fill="#0b2f63"/><rect x="100" y="300" width="180" height="36" fill="#ed174c" rx="4"/><text x="190" y="326" font-family="Arial, sans-serif" font-size="22" font-weight="800" fill="#fff" text-anchor="middle">TOTAL</text>
  </g>
  <text x="80" y="540" font-family="Inter, Arial, sans-serif" font-size="34" font-weight="800" fill="#fff" opacity=".82" letter-spacing="3">FEES & CHARGES</text>
  <rect x="80" y="556" width="50" height="3" fill="#ed174c"/>
</svg>