<svg xmlns="http://www.w3.org/2000/svg" width="1600" height="600" viewBox="0 0 1600 600" preserveAspectRatio="xMidYMid slice" role="img" aria-label="FLIGHT STATUS">
  <defs>
    <linearGradient id="bg-flight-status" x1="0" y1="0" x2="1" y2="1">
      <stop offset="0" stop-color="#0a1730"/>
      <stop offset=".55" stop-color="#0b2f63"/>
      <stop offset="1" stop-color="#0a1730"/>
    </linearGradient>
    <radialGradient id="glow-flight-status" cx=".82" cy=".25" r=".55">
      <stop offset="0" stop-color="#0a1730" stop-opacity=".5"/>
      <stop offset="1" stop-color="#0a1730" stop-opacity="0"/>
    </radialGradient>
  </defs>
  <rect width="1600" height="600" fill="url(#bg-flight-status)"/>
  <rect width="1600" height="600" fill="url(#glow-flight-status)"/>
  <g opacity=".07" stroke="#fff" fill="none" stroke-width="1">
    <path d="M0 100 H1600 M0 200 H1600 M0 300 H1600 M0 400 H1600 M0 500 H1600"/>
    <path d="M200 0 V600 M400 0 V600 M600 0 V600 M800 0 V600 M1000 0 V600 M1200 0 V600 M1400 0 V600"/>
  </g>
  <g fill="#fff" opacity=".5">
    <circle cx="180" cy="120" r="2"/><circle cx="1480" cy="180" r="2"/>
    <circle cx="320" cy="460" r="2"/><circle cx="1260" cy="480" r="3"/>
    <circle cx="900" cy="80" r="2"/><circle cx="540" cy="540" r="2"/>
    <circle cx="1380" cy="540" r="2"/><circle cx="60" cy="320" r="2"/>
  </g>
  <g transform="translate(1100, 110)">
    <rect x="40" y="40" width="300" height="300" rx="12" fill="#0a1730"/><g font-family="monospace" font-weight="700"><text x="60" y="90" font-size="22" fill="#7be787">CMB→DXB  09:40  ON TIME</text><text x="60" y="135" font-size="22" fill="#7be787">CMB→SIN  11:25  ON TIME</text><text x="60" y="180" font-size="22" fill="#ffb12b">CMB→LHR  14:10  DELAYED</text><text x="60" y="225" font-size="22" fill="#7be787">CMB→BKK  15:50  ON TIME</text><text x="60" y="270" font-size="22" fill="#7be787">CMB→DEL  18:30  BOARDING</text><text x="60" y="315" font-size="22" fill="#7be787">CMB→KUL  20:05  ON TIME</text></g>
  </g>
  <text x="80" y="540" font-family="Inter, Arial, sans-serif" font-size="34" font-weight="800" fill="#fff" opacity=".82" letter-spacing="3">FLIGHT STATUS</text>
  <rect x="80" y="556" width="50" height="3" fill="#ed174c"/>
</svg>