<svg xmlns="http://www.w3.org/2000/svg" width="1600" height="600" viewBox="0 0 1600 600" preserveAspectRatio="xMidYMid slice" role="img" aria-label="PRIVACY">
  <defs>
    <linearGradient id="bg-privacy" x1="0" y1="0" x2="1" y2="1">
      <stop offset="0" stop-color="#0a1730"/>
      <stop offset=".55" stop-color="#0b2f63"/>
      <stop offset="1" stop-color="#0b8a8f"/>
    </linearGradient>
    <radialGradient id="glow-privacy" cx=".82" cy=".25" r=".55">
      <stop offset="0" stop-color="#0b8a8f" stop-opacity=".5"/>
      <stop offset="1" stop-color="#0b8a8f" stop-opacity="0"/>
    </radialGradient>
  </defs>
  <rect width="1600" height="600" fill="url(#bg-privacy)"/>
  <rect width="1600" height="600" fill="url(#glow-privacy)"/>
  <g opacity=".07" stroke="#fff" fill="none" stroke-width="1">
    <path d="M0 100 H1600 M0 200 H1600 M0 300 H1600 M0 400 H1600 M0 500 H1600"/>
    <path d="M200 0 V600 M400 0 V600 M600 0 V600 M800 0 V600 M1000 0 V600 M1200 0 V600 M1400 0 V600"/>
  </g>
  <g fill="#fff" opacity=".5">
    <circle cx="180" cy="120" r="2"/><circle cx="1480" cy="180" r="2"/>
    <circle cx="320" cy="460" r="2"/><circle cx="1260" cy="480" r="3"/>
    <circle cx="900" cy="80" r="2"/><circle cx="540" cy="540" r="2"/>
    <circle cx="1380" cy="540" r="2"/><circle cx="60" cy="320" r="2"/>
  </g>
  <g transform="translate(1100, 110)">
    <path d="M190 20 L20 90 V200 C20 270 80 330 190 360 C300 330 360 270 360 200 V90 Z M190 70 L320 110 V200 C320 250 280 295 190 320 C100 295 60 250 60 200 V110 Z" fill="#fff"/><path d="M150 200 L180 230 L240 170" stroke="#fff" stroke-width="14" fill="none" stroke-linecap="round" stroke-linejoin="round"/>
  </g>
  <text x="80" y="540" font-family="Inter, Arial, sans-serif" font-size="34" font-weight="800" fill="#fff" opacity=".82" letter-spacing="3">PRIVACY</text>
  <rect x="80" y="556" width="50" height="3" fill="#ed174c"/>
</svg>