<svg xmlns="http://www.w3.org/2000/svg" width="1600" height="600" viewBox="0 0 1600 600" preserveAspectRatio="xMidYMid slice" role="img" aria-label="SUPPORT">
  <defs>
    <linearGradient id="bg-support" x1="0" y1="0" x2="1" y2="1">
      <stop offset="0" stop-color="#0a1730"/>
      <stop offset=".55" stop-color="#0b2f63"/>
      <stop offset="1" stop-color="#0b8a8f"/>
    </linearGradient>
    <radialGradient id="glow-support" cx=".82" cy=".25" r=".55">
      <stop offset="0" stop-color="#0b8a8f" stop-opacity=".5"/>
      <stop offset="1" stop-color="#0b8a8f" stop-opacity="0"/>
    </radialGradient>
  </defs>
  <rect width="1600" height="600" fill="url(#bg-support)"/>
  <rect width="1600" height="600" fill="url(#glow-support)"/>
  <g opacity=".07" stroke="#fff" fill="none" stroke-width="1">
    <path d="M0 100 H1600 M0 200 H1600 M0 300 H1600 M0 400 H1600 M0 500 H1600"/>
    <path d="M200 0 V600 M400 0 V600 M600 0 V600 M800 0 V600 M1000 0 V600 M1200 0 V600 M1400 0 V600"/>
  </g>
  <g fill="#fff" opacity=".5">
    <circle cx="180" cy="120" r="2"/><circle cx="1480" cy="180" r="2"/>
    <circle cx="320" cy="460" r="2"/><circle cx="1260" cy="480" r="3"/>
    <circle cx="900" cy="80" r="2"/><circle cx="540" cy="540" r="2"/>
    <circle cx="1380" cy="540" r="2"/><circle cx="60" cy="320" r="2"/>
  </g>
  <g transform="translate(1100, 110)">
    <circle cx="190" cy="190" r="140" fill="none" stroke="#fff" stroke-width="14"/><path d="M50 200 C50 130 100 80 190 80 C280 80 330 130 330 200" stroke="#fff" stroke-width="14" fill="none" stroke-linecap="round"/><rect x="30" y="190" width="50" height="80" rx="10" fill="#fff"/><rect x="300" y="190" width="50" height="80" rx="10" fill="#fff"/><path d="M190 270 V310 H260" stroke="#fff" stroke-width="10" fill="none"/><circle cx="260" cy="310" r="20" fill="#7be787"/>
  </g>
  <text x="80" y="540" font-family="Inter, Arial, sans-serif" font-size="34" font-weight="800" fill="#fff" opacity=".82" letter-spacing="3">SUPPORT</text>
  <rect x="80" y="556" width="50" height="3" fill="#ed174c"/>
</svg>