<?xml version="1.0" encoding="UTF-8"?>
<svg width="23px" height="22px" viewBox="0 0 23 22" version="1.1" xmlns="http://www.w3.org/2000/svg" xmlns:xlink="http://www.w3.org/1999/xlink">
    <!-- Generator: Sketch 50.2 (55047) - http://www.bohemiancoding.com/sketch -->
    <title>Group 16</title>
    <desc>Created with Sketch.</desc>
    <defs></defs>
    <g id="Welcome" stroke="none" stroke-width="1" fill="none" fill-rule="evenodd">
        <g id="1-1-GOL-homepage" transform="translate(-513.000000, -358.000000)" fill="#131F6B">
            <g id="VYBER-LETU" transform="translate(405.000000, 348.000000)"> 
                <g id="Group-16" transform="translate(107.000000, 9.000000)">
                    <path d="M9,21.59375 L16.32,21.59375 C19.7662568,21.59375 22.56,18.8654852 22.56,15.5 C22.56,12.1345148 19.7662568,9.40625 16.32,9.40625 L16.32,8 C20.5615469,8 24,11.3578644 24,15.5 C24,19.6421356 20.5615469,23 16.32,23 L9,23 L9,21.59375 Z" id="Rectangle-6" fill-rule="nonzero"></path>
                    <path d="M6.44777846,14 L5.26887859,11.9868844 C4.99673126,12.1523864 4.83035146,12.2305353 4.79943747,12.2004914 C4.7690445,12.1685372 4.8475452,12.0028615 5.01305663,11.730556 L3,10.5513759 L3.79125925,10.2898376 L5.89462642,10.4270324 C6.56240338,9.48976658 7.48287617,8.26456552 8.52387879,6.9367289 C8.5527087,6.90112774 8.58067023,6.86761054 8.60863176,6.83235671 L3.83259369,3.04838705 L5.23205968,3.13747679 L6.67338113,3.7708302 C6.89481563,3.45649796 7.1888459,3.32555514 7.35123119,3.48827851 C7.47888166,3.61592171 7.42347962,3.82813939 7.23990609,4.02055934 L8.38858666,4.52557489 C8.61193157,4.20481708 8.90943532,4.06970632 9.07303633,4.23399267 C9.2027709,4.36354617 9.14545844,4.57958446 8.95511161,4.77374106 L10.0112239,5.23864017 C11.7045465,3.51033387 13.271608,2.60519596 13.8344858,3.16543673 C14.3949321,3.7281088 13.489569,5.29560204 11.7613379,6.9886545 L12.2262635,8.04488028 C12.4204312,7.8545443 12.6361344,7.79688778 12.766911,7.92661495 C12.929991,8.09038031 12.7948725,8.3883881 12.4749648,8.6106783 L12.9801828,9.7599881 C13.1722664,9.57573037 13.3839751,9.52067881 13.5126676,9.64901667 C13.6747056,9.81035073 13.5435816,10.1047116 13.2292315,10.3264808 L13.8633157,11.7682411 L13.9518895,13.1671064 L10.1675306,8.39116673 C10.1324484,8.41930034 10.0987556,8.44778127 10.0629788,8.47574121 C8.73593488,9.51737919 7.50944831,10.4377995 6.57351852,11.1050175 L6.71020005,13.2084385 L6.44777846,14 Z" id="Fill-1" transform="translate(8.500000, 8.500000) rotate(-134.000000) translate(-8.500000, -8.500000) "></path>
                </g>
            </g>
        </g>
    </g>
</svg>