<?xml version="1.0" encoding="UTF-8"?>
<svg width="36px" height="15px" viewBox="0 0 36 15" version="1.1" xmlns="http://www.w3.org/2000/svg" xmlns:xlink="http://www.w3.org/1999/xlink">
    <!-- Generator: Sketch 50.2 (55047) - http://www.bohemiancoding.com/sketch -->
    <title>Group 10</title>
    <desc>Created with Sketch.</desc>
    <defs></defs>
    <g id="Welcome" stroke="none" stroke-width="1" fill="none" fill-rule="evenodd">
        <g id="1-1-GOL-homepage" transform="translate(-658.000000, -367.000000)" fill="#131F6B">
            <g id="VYBER-LETU" transform="translate(405.000000, 348.000000)">
                <g id="Group-10" transform="translate(251.000000, 19.000000)">
                    <path d="M5.72499378,13.2775209 L4.54609391,11.2642906 C4.27394658,11.429802 4.10756678,11.5079554 4.07665279,11.4779098 C4.04625982,11.4459537 4.12476052,11.2802686 4.29027195,11.0079476 L2.27721532,9.82870039 L3.06847457,9.56714718 L5.17184174,9.70434973 C5.8396187,8.76703055 6.76009149,7.54175969 7.80109411,6.21384743 C7.82992402,6.17824424 7.85788555,6.14472514 7.88584708,6.10946929 L3.10980901,2.32528407 L4.509275,2.41437889 L5.95059645,3.04776838 C6.17203095,2.73341824 6.46606122,2.60246796 6.62844651,2.7652006 C6.75609698,2.89285107 6.70069494,3.10508084 6.51712141,3.29751175 L7.66580198,3.80255607 C7.88914689,3.48177998 8.18665064,3.34666153 8.35025165,3.51095723 C8.47998622,3.64051812 8.42267376,3.85656872 8.23232693,4.05073637 L9.2884392,4.51566197 C10.9817618,2.78725721 12.5488233,1.88206774 13.1117011,2.44234043 C13.6721475,3.00504455 12.7667843,4.57262708 11.0385532,6.26577599 L11.5034788,7.32206194 C11.6976465,7.13171511 11.9133497,7.07405531 12.0441263,7.20378987 C12.2072063,7.36756456 12.0720879,7.66558933 11.7521802,7.8878922 L12.2573981,9.03726747 C12.4494817,8.85299923 12.6611905,8.79794454 12.789883,8.92628971 C12.9519209,9.08763296 12.820797,9.38201058 12.5064468,9.60379242 L13.140531,11.0456349 L13.2291048,12.4445799 L9.44474591,7.66836812 C9.40966373,7.69650332 9.37597096,7.72498588 9.34019409,7.75294741 C8.0131502,8.79464473 6.78666363,9.71511752 5.85073384,10.3823735 L5.98741537,12.4859143 L5.72499378,13.2775209 Z" id="Fill-1-Copy" opacity="0.899999976" transform="translate(7.777215, 7.777208) scale(-1, 1) rotate(-134.000000) translate(-7.777215, -7.777208) "></path>
                    <path d="M27.7249938,13.2775209 L26.5460939,11.2642906 C26.2739466,11.429802 26.1075668,11.5079554 26.0766528,11.4779098 C26.0462598,11.4459537 26.1247605,11.2802686 26.2902719,11.0079476 L24.2772153,9.82870039 L25.0684746,9.56714718 L27.1718417,9.70434973 C27.8396187,8.76703055 28.7600915,7.54175969 29.8010941,6.21384743 C29.829924,6.17824424 29.8578855,6.14472514 29.8858471,6.10946929 L25.109809,2.32528407 L26.509275,2.41437889 L27.9505965,3.04776838 C28.1720309,2.73341824 28.4660612,2.60246796 28.6284465,2.7652006 C28.756097,2.89285107 28.7006949,3.10508084 28.5171214,3.29751175 L29.665802,3.80255607 C29.8891469,3.48177998 30.1866506,3.34666153 30.3502517,3.51095723 C30.4799862,3.64051812 30.4226738,3.85656872 30.2323269,4.05073637 L31.2884392,4.51566197 C32.9817618,2.78725721 34.5488233,1.88206774 35.1117011,2.44234043 C35.6721475,3.00504455 34.7667843,4.57262708 33.0385532,6.26577599 L33.5034788,7.32206194 C33.6976465,7.13171511 33.9133497,7.07405531 34.0441263,7.20378987 C34.2072063,7.36756456 34.0720879,7.66558933 33.7521802,7.8878922 L34.2573981,9.03726747 C34.4494817,8.85299923 34.6611905,8.79794454 34.789883,8.92628971 C34.9519209,9.08763296 34.820797,9.38201058 34.5064468,9.60379242 L35.140531,11.0456349 L35.2291048,12.4445799 L31.4447459,7.66836812 C31.4096637,7.69650332 31.375971,7.72498588 31.3401941,7.75294741 C30.0131502,8.79464473 28.7866636,9.71511752 27.8507338,10.3823735 L27.9874154,12.4859143 L27.7249938,13.2775209 Z" id="Fill-1-Copy-2" opacity="0.899999976" transform="translate(29.777215, 7.777208) scale(-1, 1) rotate(-134.000000) translate(-29.777215, -7.777208) "></path>
                    <rect id="Rectangle-7-Copy-2" x="18" y="7" width="3" height="2" rx="1"></rect>
                </g>
            </g>
        </g>
    </g>
</svg>