<?xml version="1.0" encoding="UTF-8"?>
<svg width="13px" height="15px" viewBox="0 0 13 15" version="1.1" xmlns="http://www.w3.org/2000/svg" xmlns:xlink="http://www.w3.org/1999/xlink">
    <!-- Generator: Sketch 50.2 (55047) - http://www.bohemiancoding.com/sketch -->
    <title>Fill 1 Copy 3</title>
    <desc>Created with Sketch.</desc>
    <defs></defs>
    <g id="Welcome" stroke="none" stroke-width="1" fill="none" fill-rule="evenodd" opacity="0.899999976">
        <g id="4-2-GOL---FILTR-LEVA" transform="translate(-723.000000, -697.000000)" fill="#131F6B">
            <g id="LET" transform="translate(690.000000, 610.000000)">
                <g id="Group-8" transform="translate(30.000000, 85.000000)">
                    <path d="M6.44777846,15.2775209 L5.26887859,13.2642906 C4.99673126,13.429802 4.83035146,13.5079554 4.79943747,13.4779098 C4.7690445,13.4459537 4.8475452,13.2802686 5.01305663,13.0079476 L3,11.8287004 L3.79125925,11.5671472 L5.89462642,11.7043497 C6.56240338,10.7670305 7.48287617,9.54175969 8.52387879,8.21384743 C8.5527087,8.17824424 8.58067023,8.14472514 8.60863176,8.10946929 L3.83259369,4.32528407 L5.23205968,4.41437889 L6.67338113,5.04776838 C6.89481563,4.73341824 7.1888459,4.60246796 7.35123119,4.7652006 C7.47888166,4.89285107 7.42347962,5.10508084 7.23990609,5.29751175 L8.38858666,5.80255607 C8.61193157,5.48177998 8.90943532,5.34666153 9.07303633,5.51095723 C9.2027709,5.64051812 9.14545844,5.85656872 8.95511161,6.05073637 L10.0112239,6.51566197 C11.7045465,4.78725721 13.271608,3.88206774 13.8344858,4.44234043 C14.3949321,5.00504455 13.489569,6.57262708 11.7613379,8.26577599 L12.2262635,9.32206194 C12.4204312,9.13171511 12.6361344,9.07405531 12.766911,9.20378987 C12.929991,9.36756456 12.7948725,9.66558933 12.4749648,9.8878922 L12.9801828,11.0372675 C13.1722664,10.8529992 13.3839751,10.7979445 13.5126676,10.9262897 C13.6747056,11.087633 13.5435816,11.3820106 13.2292315,11.6037924 L13.8633157,13.0456349 L13.9518895,14.4445799 L10.1675306,9.66836812 C10.1324484,9.69650332 10.0987556,9.72498588 10.0629788,9.75294741 C8.73593488,10.7946447 7.50944831,11.7151175 6.57351852,12.3823735 L6.71020005,14.4859143 L6.44777846,15.2775209 Z" id="Fill-1-Copy-3" transform="translate(8.500000, 9.777208) scale(-1, 1) rotate(-134.000000) translate(-8.500000, -9.777208) "></path>
                </g>
            </g>
        </g>
    </g>
</svg>