<?xml version="1.0" encoding="UTF-8"?>
<svg width="29px" height="15px" viewBox="0 0 29 15" version="1.1" xmlns="http://www.w3.org/2000/svg" xmlns:xlink="http://www.w3.org/1999/xlink">
    <!-- Generator: Sketch 50.2 (55047) - http://www.bohemiancoding.com/sketch -->
    <title>Group 11</title>
    <desc>Created with Sketch.</desc>
    <defs></defs>
    <g id="Welcome" stroke="none" stroke-width="1" fill="none" fill-rule="evenodd">
        <g id="1-1-GOL-homepage" transform="translate(-431.000000, -367.000000)" fill="#131F6B">
            <g id="VYBER-LETU" transform="translate(405.000000, 348.000000)">
                <g id="Group-11" transform="translate(26.000000, 19.000000)">
                    <path d="M19.1705631,13.2775209 L17.9916633,11.2642906 C17.7195159,11.429802 17.5531361,11.5079554 17.5222222,11.4779098 C17.4918292,11.4459537 17.5703299,11.2802686 17.7358413,11.0079476 L15.7227847,9.82870039 L16.5140439,9.56714718 L18.6174111,9.70434973 C19.2851881,8.76703055 20.2056608,7.54175969 21.2466635,6.21384743 C21.2754934,6.17824424 21.3034549,6.14472514 21.3314164,6.10946929 L16.5553784,2.32528407 L17.9548444,2.41437889 L19.3961658,3.04776838 C19.6176003,2.73341824 19.9116306,2.60246796 20.0740159,2.7652006 C20.2016663,2.89285107 20.1462643,3.10508084 19.9626908,3.29751175 L21.1113713,3.80255607 C21.3347162,3.48177998 21.63222,3.34666153 21.795821,3.51095723 C21.9255556,3.64051812 21.8682431,3.85656872 21.6778963,4.05073637 L22.7340086,4.51566197 C24.4273312,2.78725721 25.9943927,1.88206774 26.5572705,2.44234043 C27.1177168,3.00504455 26.2123537,4.57262708 24.4841226,6.26577599 L24.9490482,7.32206194 C25.1432158,7.13171511 25.3589191,7.07405531 25.4896957,7.20378987 C25.6527757,7.36756456 25.5176572,7.66558933 25.1977495,7.8878922 L25.7029675,9.03726747 C25.8950511,8.85299923 26.1067598,8.79794454 26.2354523,8.92628971 C26.3974903,9.08763296 26.2663663,9.38201058 25.9520162,9.60379242 L26.5861004,11.0456349 L26.6746742,12.4445799 L22.8903153,7.66836812 C22.8552331,7.69650332 22.8215403,7.72498588 22.7857635,7.75294741 C21.4587196,8.79464473 20.232233,9.71511752 19.2963032,10.3823735 L19.4329847,12.4859143 L19.1705631,13.2775209 Z" id="Fill-1-Copy-3" opacity="0.899999976" transform="translate(21.222785, 7.777208) scale(-1, 1) rotate(-134.000000) translate(-21.222785, -7.777208) "></path>
                    <rect id="Rectangle-7" x="0" y="7" width="8" height="2" rx="1"></rect>
                    <rect id="Rectangle-7-Copy" x="10" y="7" width="3" height="2" rx="1"></rect>
                </g>
            </g>
        </g>
    </g>
</svg>